A special highlighting classic and new holiday television commercials.


Video
ID                                       : 2
Format                                   : AVC
Format/Info                              : Advanced Video Codec
Format profile                           : Baseline@L3.0
Format settings, CABAC                   : No
Format settings, ReFrames                : 1 frame
Codec ID                                 : avc1
Codec ID/Info                            : Advanced Video Coding
Duration                                 : 58mn 19s
Source duration                          : 58mn 19s
Bit rate                                 : 359 Kbps
Width                                    : 320 pixels
Height                                   : 240 pixels
Display aspect ratio                     : 4:3
Frame rate mode                          : Variable
Frame rate                               : 29.970 fps
Minimum frame rate                       : 29.441 fps
Maximum frame rate                       : 30.333 fps
Color space                              : YUV
Chroma subsampling                       : 4:2:0
Bit depth                                : 8 bits
Scan type                                : Progressive
Bits/(Pixel*Frame)                       : 0.156
Stream size                              : 150 MiB (77%)
Source stream size                       : 150 MiB (77%)
Language                                 : English
Encoded date                             : UTC 2012-12-19 21:58:09
Tagged date                              : UTC 2012-12-19 21:58:09
mdhd_Duration                            : 3499732

Audio
ID                                       : 1
Format                                   : AAC
Format/Info                              : Advanced Audio Codec
Format profile                           : LC
Codec ID                                 : 40
Duration                                 : 58mn 19s
Source duration                          : 58mn 19s
Bit rate mode                            : Variable
Bit rate                                 : 96.0 Kbps
Maximum bit rate                         : 163 Kbps
Channel(s)                               : 2 channels
Channel positions                        : Front: L R
Sampling rate                            : 44.1 KHz
Compression mode                         : Lossy
Stream size                              : 40.0 MiB (21%)
Source stream size                       : 40.1 MiB (21%)
Language                                 : English
Encoded date                             : UTC 2012-12-19 21:58:09
Tagged date                              : UTC 2012-12-19 21:58:09
mdhd_Duration                            : 3499712

